<svg height="464pt" viewBox="0 -16 464 464" width="464pt" xmlns="http://www.w3.org/2000/svg"><path d="m72 352h320c8.835938 0 16 7.164062 16 16v48c0 8.835938-7.164062 16-16 16h-320c-8.835938 0-16-7.164062-16-16v-48c0-8.835938 7.164062-16 16-16zm0 0" fill="#78b9eb"/><path d="m432 96-56 256h-288l-56-256 120.160156 72 79.839844-120 79.839844 120zm0 0" fill="#ffde55"/><g fill="#ffb655"><path d="m256 24c0 13.253906-10.746094 24-24 24s-24-10.746094-24-24 10.746094-24 24-24 24 10.746094 24 24zm0 0"/><path d="m48 72c0 13.253906-10.746094 24-24 24s-24-10.746094-24-24 10.746094-24 24-24 24 10.746094 24 24zm0 0"/><path d="m464 72c0 13.253906-10.746094 24-24 24s-24-10.746094-24-24 10.746094-24 24-24 24 10.746094 24 24zm0 0"/></g><path d="m248 392c0 8.835938-7.164062 16-16 16s-16-7.164062-16-16 7.164062-16 16-16 16 7.164062 16 16zm0 0" fill="#ffa733"/><path d="m152 392c0 8.835938-7.164062 16-16 16s-16-7.164062-16-16 7.164062-16 16-16 16 7.164062 16 16zm0 0" fill="#ffa733"/><path d="m304 232c0 48-72 88-72 88-13.90625-8.085938-26.886719-17.664062-38.71875-28.558594-2.402344-2.160156-4.722656-4.402344-6.960938-6.722656-14.242187-14.71875-26.320312-33.117188-26.320312-52.71875-.070312-10.628906 4.125-20.84375 11.640625-28.359375s17.730469-11.710937 28.359375-11.640625c12.640625.03125 24.515625 6.054688 32 16.238281 7.476562-10.195312 19.355469-16.226562 32-16.238281 10.613281-.015625 20.796875 4.195312 28.300781 11.699219 7.503907 7.503906 11.714844 17.6875 11.699219 28.300781zm0 0" fill="#ff6243"/><path d="m304 232c0 48-72 88-72 88-13.90625-8.085938-26.886719-17.664062-38.71875-28.558594 39.320312-21.277344 72.914062-51.742187 97.917969-88.800781 8.152343 7.585937 12.789062 18.222656 12.800781 29.359375zm0 0" fill="#ff5023"/><path d="m408 368v48c-.027344 8.824219-7.175781 15.972656-16 16h-119.28125c37.839844-19.273438 71.011719-46.574219 97.203125-80h22.078125c8.824219.027344 15.972656 7.175781 16 16zm0 0" fill="#5aaae7"/><path d="m344 392c0 8.835938-7.164062 16-16 16s-16-7.164062-16-16 7.164062-16 16-16 16 7.164062 16 16zm0 0" fill="#ffa733"/></svg>